<?xml version="1.0" encoding="UTF-8" standalone="no"?>
<!-- Created with Inkscape (http://www.inkscape.org/) -->

<svg
   width="1095.0657mm"
   height="1095.1849mm"
   viewBox="0 0 1095.0657 1095.1849"
   version="1.1"
   id="svg5"
   xml:space="preserve"
   inkscape:version="1.4.4 (dcaf3e7d9e, 2026-05-05)"
   sodipodi:docname="favicon.svg"
   inkscape:export-filename="../../../../tmp/Bitcoin-Dresden-gerade.png"
   inkscape:export-xdpi="5.7199998"
   inkscape:export-ydpi="5.7199998"
   xmlns:inkscape="http://www.inkscape.org/namespaces/inkscape"
   xmlns:sodipodi="http://sodipodi.sourceforge.net/DTD/sodipodi-0.dtd"
   xmlns="http://www.w3.org/2000/svg"
   xmlns:svg="http://www.w3.org/2000/svg"><sodipodi:namedview
     id="namedview7"
     pagecolor="#ffffff"
     bordercolor="#666666"
     borderopacity="1.0"
     inkscape:showpageshadow="2"
     inkscape:pageopacity="0.0"
     inkscape:pagecheckerboard="0"
     inkscape:deskcolor="#d1d1d1"
     inkscape:document-units="mm"
     showgrid="false"
     inkscape:zoom="0.10562017"
     inkscape:cx="1704.2199"
     inkscape:cy="1642.6787"
     inkscape:window-width="1440"
     inkscape:window-height="897"
     inkscape:window-x="0"
     inkscape:window-y="0"
     inkscape:window-maximized="1"
     inkscape:current-layer="g407" /><defs
     id="defs2"><rect
   x="-3461.4243"
   y="2603.5132"
   width="1305.2461"
   height="897.76849"
   id="rect7978" />
  
  
 
   
   
  
  
  
 
   
   
  </defs><g
     inkscape:groupmode="layer"
     id="g407"
     inkscape:label="draft rotiert2"
     style="display:inline"
     transform="translate(-1131.8522,6.2859761)"><path
       id="path385"
       style="clip-rule:evenodd;stroke-width:0.264583;image-rendering:optimizeQuality;shape-rendering:geometricPrecision;text-rendering:geometricPrecision;fill:#f7931a;fill-opacity:1"
       inkscape:label="Circle"
       d="m 1675.0371,0.578125 c -63.2501,0.5571651 -126.3218,12.330427 -185.5336,34.546744 -53.6096,20.075846 -104.0582,48.721556 -148.7217,84.588551 -38.3211,30.74058 -72.3713,66.78175 -100.9107,106.76782 -27.3346,38.29405 -49.6803,80.10324 -66.3476,124.07125 -17.3815,45.87727 -28.4549,94.15689 -32.7503,143.01399 -5.4218,61.20879 -0.2276,123.3072 15.1437,182.77458 15.279,59.25564 40.6297,115.87553 74.749,166.70058 30.7586,45.86904 68.6125,86.92198 111.8543,121.25818 46.5189,36.95988 99.1464,66.18168 155.0498,86.23398 52.0498,18.6736 106.9784,29.235 162.2441,31.171 61.2574,2.1911 122.8338,-6.1904 181.2757,-24.5259 60.45,-18.9269 117.5595,-48.5175 167.8151,-87.12777 43.8205,-33.61222 82.3516,-74.02758 113.876,-119.37227 26.8549,-38.60545 48.6927,-80.69755 64.8058,-124.86667 16.8294,-46.15507 27.2956,-94.62027 30.9709,-143.60199 4.6328,-61.24916 -1.3421,-123.25504 -17.4497,-182.49863 -16.5448,-61.018 -43.8298,-119.11811 -80.3396,-170.77552 -28.3113,-40.09864 -62.1411,-76.2818 -100.2507,-107.1806 C 1977.5434,86.873746 1929.1212,58.651346 1877.6504,38.272071 1828.2832,18.720284 1775.9986,6.5293065 1723.0695,2.2912905 1707.0976,1.0024569 1691.0666,0.43718322 1675.0371,0.578125 Z m 481.8906,794.845705 c 0.5868,0.80804 0.6478,-0.0568 0.2364,-0.57227 -0.079,0.19076 -0.1576,0.38151 -0.2364,0.57227 z" /><path
       id="path387"
       style="clip-rule:evenodd;fill:#ffffff;stroke-width:0.264583;image-rendering:optimizeQuality;shape-rendering:geometricPrecision;text-rendering:geometricPrecision"
       d="M 1898.8307,46.627009 1640.8823,1081.2015 c 46.8181,3.3101 93.5757,0.4556 139.1146,-8.1933 L 2017.8623,118.98197 C 1991.9482,98.255805 1963.778,79.601763 1933.4105,63.456368 1921.999,57.388412 1910.4609,51.801364 1898.8307,46.627009 Z m 200.0127,152.564871 -209.6685,840.93432 c 60.0007,-25.1959 115.6739,-61.24561 163.7892,-107.15786 l 140.0854,-561.85218 c -20.5458,-62.0631 -52.2866,-120.46885 -94.2061,-171.92428 z"
       inkscape:label="DD" /><path
       fill="#ffffff"
       fill-rule="nonzero"
       d="m 1717.5288,419.69733 c 10.8997,-72.01651 -43.8755,-110.83396 -118.8239,-136.7961 l 24.4988,-97.53571 -59.3732,-14.90419 -23.8442,94.96884 c -15.6089,-3.92194 -31.6389,-7.61969 -47.5709,-11.2855 l 24.0219,-95.59443 -59.3359,-14.90437 -24.512,97.50393 c -12.9169,-2.96469 -25.604,-5.89462 -37.9122,-8.97994 l 0.066,-0.30762 -81.8764,-20.59782 -15.9119,63.41404 c 0,0 44.0513,10.17869 43.1213,10.79876 24.0428,6.04535 28.365,21.97561 27.6204,34.59491 l -27.9102,111.11522 c 1.6552,0.42404 3.8028,1.03565 6.1719,1.9925 -1.9807,-0.49691 -4.0888,-1.03634 -6.2759,-1.56411 l -39.115,155.65782 c -2.9523,7.30263 -10.4327,18.25658 -27.2423,14.06271 0.5938,0.86357 -43.1529,-10.84962 -43.1529,-10.84962 l -29.6092,67.941 77.2643,19.40434 c 14.3737,3.63098 28.4591,7.42892 42.3299,11.00109 l -24.7524,98.65442 59.3044,14.90448 24.5072,-97.60842 c 16.2008,4.42827 31.923,8.51457 47.3151,12.36728 l -24.4294,97.14687 59.3755,14.90477 24.7493,-98.46921 c 101.2542,19.34575 177.428,11.75022 209.6446,-79.80833 25.9599,-73.71533 -1.0829,-116.30757 -54.3215,-144.14477 38.8273,-8.88308 68.1057,-34.359 75.9922,-87.07683 l -0.018,-0.0128 z m -136.0447,190.06703 c -18.4856,73.72841 -142.6058,33.63899 -182.8525,23.57015 l 32.846,-130.69993 c 40.2442,10.12171 169.3259,30.23848 150.0094,107.12984 z m 18.704,-191.34075 c -16.8627,67.06364 -120.1676,32.79709 -153.6836,24.3804 l 29.7747,-118.53828 c 33.516,8.41667 141.4704,24.20498 123.9095,94.15671 z"
       id="path389"
       style="clip-rule:evenodd;fill:#ffffff;stroke-width:0.264583;image-rendering:optimizeQuality;shape-rendering:geometricPrecision;text-rendering:geometricPrecision"
       inkscape:label="BSymbol" /></g></svg>
