<?xml version="1.0" encoding="UTF-8" standalone="no"?>
<!-- Created with Inkscape (http://www.inkscape.org/) -->

<svg
   width="1082.4503mm"
   height="1082.548mm"
   viewBox="0 0 1082.4503 1082.548"
   version="1.1"
   id="svg5"
   xml:space="preserve"
   inkscape:version="1.4.4 (dcaf3e7d9e, 2026-05-05)"
   sodipodi:docname="logo.svg"
   inkscape:export-filename="../../../../tmp/Bitcoin-Dresden-gerade.png"
   inkscape:export-xdpi="5.7199998"
   inkscape:export-ydpi="5.7199998"
   xmlns:inkscape="http://www.inkscape.org/namespaces/inkscape"
   xmlns:sodipodi="http://sodipodi.sourceforge.net/DTD/sodipodi-0.dtd"
   xmlns="http://www.w3.org/2000/svg"
   xmlns:svg="http://www.w3.org/2000/svg"><sodipodi:namedview
     id="namedview7"
     pagecolor="#ffffff"
     bordercolor="#666666"
     borderopacity="1.0"
     inkscape:showpageshadow="2"
     inkscape:pageopacity="0.0"
     inkscape:pagecheckerboard="0"
     inkscape:deskcolor="#d1d1d1"
     inkscape:document-units="mm"
     showgrid="false"
     inkscape:zoom="0.054464614"
     inkscape:cx="293.76872"
     inkscape:cy="3699.6498"
     inkscape:window-width="1440"
     inkscape:window-height="897"
     inkscape:window-x="0"
     inkscape:window-y="0"
     inkscape:window-maximized="1"
     inkscape:current-layer="g407" /><defs
     id="defs2"><rect
   x="-3461.4243"
   y="2603.5132"
   width="1305.2461"
   height="897.76849"
   id="rect7978" />
  
  
 
   
   
  
  
  
 
   
   
  </defs><g
     inkscape:groupmode="layer"
     id="g407"
     inkscape:label="draft rotiert2"
     style="display:inline"
     transform="translate(-0.0083352,-0.02633125)"><g
       id="g373"
       transform="rotate(14,541.24057,541.30167)"><path
         fill="#f7931a"
         fill-rule="nonzero"
         d="M 1066.2869,672.24519 C 993.9921,962.23116 700.2835,1138.7109 410.2631,1066.3976 120.36442,994.10287 -56.11531,700.37569 16.21119,410.41352 88.47419,120.3958 382.1829,-56.09716 672.1133,16.19759 c 289.9992,72.29475 466.4683,366.05368 394.1656,656.05289 l 0.01,-0.005 z"
         id="path367"
         style="clip-rule:evenodd;stroke-width:0.264583;image-rendering:optimizeQuality;shape-rendering:geometricPrecision;text-rendering:geometricPrecision"
         inkscape:label="orangeCurcle" /><path
         id="path369"
         style="clip-rule:evenodd;stroke-width:0.264583;image-rendering:optimizeQuality;shape-rendering:geometricPrecision;text-rendering:geometricPrecision"
         d="M 634.4891,8.23375 V 1074.4803 c 46.2282,-8.1145 90.9063,-22.1959 133.0001,-41.6047 V 49.64311 C 737.3307,35.8018 705.4845,24.51684 672.1131,16.1976 659.5726,13.07058 647.0256,10.44081 634.4891,8.23375 Z m 230.9802,99.6456 v 866.67836 c 52.123,-38.96299 97.4212,-87.41038 133.0001,-143.59899 V 251.90621 C 963.5194,196.65715 918.5918,147.66509 865.4693,107.87935 Z"
         inkscape:label="DD" /><path
         fill="#ffffff"
         fill-rule="nonzero"
         d="M 548.8265,414.08319 C 541.9801,341.569 479.4411,317.15593 400.4382,310.09663 l 0.1751,-100.56529 -61.2152,-0.0978 -0.1609,97.9163 c -16.0941,-0.0293 -32.5425,0.26079 -48.8881,0.55818 l 0.182,-98.5663 -61.1791,-0.10699 -0.1955,100.53763 c -13.2505,0.24827 -26.2695,0.47464 -38.9585,0.45859 l -0.01,-0.31454 -84.42737,-0.17828 -0.098,65.37981 c 0,0 45.2052,-0.78063 44.4529,0.046 24.7911,0.0493 32.83877,14.46073 35.16917,26.88531 l -0.2,114.56673 c 1.7087,0.011 3.9404,0.0849 6.4706,0.4402 -2.042,-0.003 -4.218,-0.0164 -6.4678,6.1e-4 l -0.2961,160.49689 c -1.098,7.79996 -5.7062,20.2382 -23.03097,20.2355 0.7851,0.69426 -44.4959,-0.0877 -44.4959,-0.0877 l -12.2932,73.08596 79.66347,0.13604 c 14.8252,0.0458 29.411,0.32336 43.734,0.43376 l -0.1505,101.71212 61.1485,0.11472 0.1656,-100.63785 c 16.7909,0.37739 33.0346,0.53878 48.9016,0.55335 l -0.2018,100.1712 61.2176,0.0978 0.1922,-101.53164 c 102.9267,-5.72451 175.0003,-31.52253 184.1099,-128.1553 7.3555,-77.80596 -29.1881,-112.59076 -87.5797,-126.72149 35.525,-18.01241 57.7705,-49.81466 52.6691,-102.87445 l -0.021,-0.008 z m -86.0222,217.33342 c -0.1,76.01043 -130.2318,67.13923 -171.7189,67.10605 l 0.2512,-134.76376 c 41.4974,0.0851 171.6115,-11.62337 171.4705,67.65707 z M 434.6632,441.23458 c -0.1377,69.15104 -108.6638,60.89406 -143.2204,60.83564 l 0.2133,-122.22035 c 34.5566,0.0584 143.1238,-10.73879 143.0074,61.38344 z"
         id="path371"
         style="clip-rule:evenodd;fill:#000000;stroke-width:0.264583;image-rendering:optimizeQuality;shape-rendering:geometricPrecision;text-rendering:geometricPrecision"
         inkscape:label="BSymbol" /></g></g></svg>
