<?xml version="1.0" encoding="UTF-8" standalone="no"?>
<!-- Created with Inkscape (http://www.inkscape.org/) -->

<svg
   width="1082.4503mm"
   height="1082.548mm"
   viewBox="0 0 1082.4503 1082.548"
   version="1.1"
   id="svg5"
   xml:space="preserve"
   inkscape:version="1.4.4 (dcaf3e7d9e, 2026-05-05)"
   sodipodi:docname="logo.svg"
   inkscape:export-filename="../../../../tmp/Bitcoin-Dresden-gerade.png"
   inkscape:export-xdpi="5.7199998"
   inkscape:export-ydpi="5.7199998"
   xmlns:inkscape="http://www.inkscape.org/namespaces/inkscape"
   xmlns:sodipodi="http://sodipodi.sourceforge.net/DTD/sodipodi-0.dtd"
   xmlns="http://www.w3.org/2000/svg"
   xmlns:svg="http://www.w3.org/2000/svg"><sodipodi:namedview
     id="namedview7"
     pagecolor="#ffffff"
     bordercolor="#666666"
     borderopacity="1.0"
     inkscape:showpageshadow="2"
     inkscape:pageopacity="0.0"
     inkscape:pagecheckerboard="0"
     inkscape:deskcolor="#d1d1d1"
     inkscape:document-units="mm"
     showgrid="false"
     inkscape:zoom="0.054464614"
     inkscape:cx="302.94899"
     inkscape:cy="3699.6498"
     inkscape:window-width="1440"
     inkscape:window-height="897"
     inkscape:window-x="0"
     inkscape:window-y="0"
     inkscape:window-maximized="1"
     inkscape:current-layer="g407" /><defs
     id="defs2"><rect
   x="-3461.4243"
   y="2603.5132"
   width="1305.2461"
   height="897.76849"
   id="rect7978" />
  
  
 
   
   
  
  
  
 
   
   
  </defs><g
     inkscape:groupmode="layer"
     id="layer3"
     inkscape:label="draft gerade"
     style="display:none"
     transform="translate(-0.0083352,-0.02633125)"><g
       id="g365"><path
         fill="#f7931a"
         fill-rule="nonzero"
         d="M 1066.2869,672.24519 C 993.9921,962.23116 700.2835,1138.7109 410.2631,1066.3976 120.36442,994.10287 -56.11531,700.37569 16.21119,410.41352 88.47419,120.3958 382.1829,-56.09716 672.1133,16.19759 c 289.9992,72.29475 466.4683,366.05368 394.1656,656.05289 l 0.01,-0.005 z"
         id="path6698-3"
         style="clip-rule:evenodd;stroke-width:0.264583;image-rendering:optimizeQuality;shape-rendering:geometricPrecision;text-rendering:geometricPrecision" /><path
         id="path7608-6"
         style="clip-rule:evenodd;stroke-width:0.264583;image-rendering:optimizeQuality;shape-rendering:geometricPrecision;text-rendering:geometricPrecision"
         d="M 634.4891,8.23375 V 1074.4803 c 46.2282,-8.1145 90.9063,-22.1959 133.0001,-41.6047 V 49.64311 C 737.3307,35.8018 705.4845,24.51684 672.1131,16.1976 659.5726,13.07058 647.0256,10.44081 634.4891,8.23375 Z m 230.9802,99.6456 v 866.67836 c 52.123,-38.96299 97.4212,-87.41038 133.0001,-143.59899 V 251.90621 C 963.5194,196.65715 918.5918,147.66509 865.4693,107.87935 Z" /><path
         fill="#ffffff"
         fill-rule="nonzero"
         d="M 548.8265,414.08319 C 541.9801,341.569 479.4411,317.15593 400.4382,310.09663 l 0.1751,-100.56529 -61.2152,-0.0978 -0.1609,97.9163 c -16.0941,-0.0293 -32.5425,0.26079 -48.8881,0.55818 l 0.182,-98.5663 -61.1791,-0.10699 -0.1955,100.53763 c -13.2505,0.24827 -26.2695,0.47464 -38.9585,0.45859 l -0.01,-0.31454 -84.42737,-0.17828 -0.098,65.37981 c 0,0 45.2052,-0.78063 44.4529,0.046 24.7911,0.0493 32.83877,14.46073 35.16917,26.88531 l -0.2,114.56673 c 1.7087,0.011 3.9404,0.0849 6.4706,0.4402 -2.042,-0.003 -4.218,-0.0164 -6.4678,6.1e-4 l -0.2961,160.49689 c -1.098,7.79996 -5.7062,20.2382 -23.03097,20.2355 0.7851,0.69426 -44.4959,-0.0877 -44.4959,-0.0877 l -12.2932,73.08596 79.66347,0.13604 c 14.8252,0.0458 29.411,0.32336 43.734,0.43376 l -0.1505,101.71212 61.1485,0.11472 0.1656,-100.63785 c 16.7909,0.37739 33.0346,0.53878 48.9016,0.55335 l -0.2018,100.1712 61.2176,0.0978 0.1922,-101.53164 c 102.9267,-5.72451 175.0003,-31.52253 184.1099,-128.1553 7.3555,-77.80596 -29.1881,-112.59076 -87.5797,-126.72149 35.525,-18.01241 57.7705,-49.81466 52.6691,-102.87445 l -0.021,-0.008 z m -86.0222,217.33342 c -0.1,76.01043 -130.2318,67.13923 -171.7189,67.10605 l 0.2512,-134.76376 c 41.4974,0.0851 171.6115,-11.62337 171.4705,67.65707 z M 434.6632,441.23458 c -0.1377,69.15104 -108.6638,60.89406 -143.2204,60.83564 l 0.2133,-122.22035 c 34.5566,0.0584 143.1238,-10.73879 143.0074,61.38344 z"
         id="path7616-0"
         style="clip-rule:evenodd;fill:#000000;stroke-width:0.264583;image-rendering:optimizeQuality;shape-rendering:geometricPrecision;text-rendering:geometricPrecision" /></g><g
       id="g8123"
       transform="translate(0,-0.00874387)"><path
         fill="#f7931a"
         fill-rule="nonzero"
         d="m 1066.2869,1810.2021 c -72.2948,289.986 -366.0034,466.4657 -656.0238,394.1525 -289.89868,-72.2948 -466.37841,-366.022 -394.05191,-655.9841 72.263,-290.0177 365.97171,-466.5107 655.90211,-394.216 289.9992,72.2948 466.4683,366.0537 394.1656,656.0529 l 0.01,-0.01 z"
         id="path8095"
         style="clip-rule:evenodd;fill:#000000;fill-opacity:1;stroke-width:0.264583;image-rendering:optimizeQuality;shape-rendering:geometricPrecision;text-rendering:geometricPrecision" /><path
         id="path8097"
         style="clip-rule:evenodd;fill:#f7931a;fill-opacity:1;stroke-width:0.264583;image-rendering:optimizeQuality;shape-rendering:geometricPrecision;text-rendering:geometricPrecision"
         d="m 634.4891,1146.1907 v 1066.2465 c 46.2282,-8.1145 90.9063,-22.1958 133.0001,-41.6046 v -983.2325 c -30.1585,-13.8413 -62.0047,-25.1263 -95.3761,-33.4455 -12.5405,-3.1271 -25.0875,-5.7568 -37.624,-7.9639 z m 230.9802,99.6456 v 866.6784 c 52.123,-38.963 97.4212,-87.4104 133.0001,-143.599 v -579.0525 c -34.95,-55.2491 -79.8776,-104.2412 -133.0001,-144.0269 z" /><path
         fill="#ffffff"
         fill-rule="nonzero"
         d="m 548.8265,1552.0401 c -6.8464,-72.5142 -69.3854,-96.9272 -148.3883,-103.9865 l 0.1751,-100.5653 -61.2152,-0.098 -0.1609,97.9163 c -16.0941,-0.029 -32.5425,0.2608 -48.8881,0.5582 l 0.182,-98.5663 -61.1791,-0.107 -0.1955,100.5376 c -13.2505,0.2483 -26.2695,0.4747 -38.9585,0.4586 l -0.01,-0.3145 -84.42737,-0.1783 -0.098,65.3798 c 0,0 45.2052,-0.7806 44.4529,0.046 24.7911,0.049 32.83877,14.4607 35.16917,26.8853 l -0.2,114.5668 c 1.7087,0.011 3.9404,0.085 6.4706,0.4402 -2.042,0 -4.218,-0.016 -6.4678,6e-4 l -0.2961,160.4969 c -1.098,7.7999 -5.7062,20.2382 -23.03097,20.2355 0.7851,0.6942 -44.4959,-0.088 -44.4959,-0.088 l -12.2932,73.0859 79.66347,0.1361 c 14.8252,0.046 29.411,0.3233 43.734,0.4337 l -0.1505,101.7121 61.1485,0.1148 0.1656,-100.6379 c 16.7909,0.3774 33.0346,0.5388 48.9016,0.5534 l -0.2018,100.1712 61.2176,0.098 0.1922,-101.5317 c 102.9267,-5.7245 175.0003,-31.5225 184.1099,-128.1553 7.3555,-77.8059 -29.1881,-112.5907 -87.5797,-126.7215 35.525,-18.0124 57.7705,-49.8146 52.6691,-102.8744 l -0.021,-0.01 z m -86.0222,217.3335 c -0.1,76.0104 -130.2318,67.1392 -171.7189,67.106 l 0.2512,-134.7637 c 41.4974,0.085 171.6115,-11.6234 171.4705,67.657 z m -28.1411,-190.1821 c -0.1377,69.1511 -108.6638,60.8941 -143.2204,60.8357 l 0.2133,-122.2204 c 34.5566,0.058 143.1238,-10.7388 143.0074,61.3835 z"
         id="path8099"
         style="clip-rule:evenodd;fill:#f7931a;fill-opacity:1;stroke-width:0.264583;image-rendering:optimizeQuality;shape-rendering:geometricPrecision;text-rendering:geometricPrecision" /></g><g
       id="g8179"><path
         id="path8172"
         style="clip-rule:evenodd;fill:#000000;fill-opacity:1;stroke-width:0.264583;image-rendering:optimizeQuality;shape-rendering:geometricPrecision;text-rendering:geometricPrecision"
         d="m 1675.9556,-6.3309985 c -77.4441,0.4349 -154.7311,17.6459005 -225.0437,50.0850005 -66.7407,30.6961 -127.2661,74.868398 -176.6811,129.245698 -34.4395,37.821 -63.5306,80.508 -86.0663,126.4293 -29.2137,59.5321 -47.5122,124.3813 -53.8429,190.3901 -3.6845,38.2512 -3.293,76.8955 1.1996,115.0602 5.9339,50.7339 19.0554,100.6168 38.792,147.7222 28.1701,67.2554 69.8382,128.8271 121.914,179.8799 39.3585,38.6348 84.5977,71.2778 133.7207,96.3475 68.4007,34.9313 144.1929,55.2373 220.8854,59.3336 42.5454,2.2845 85.3561,-0.4718 127.2525,-8.2028 59.9991,-11.034 118.1243,-32.1656 171.1714,-62.2918 57.2178,-32.4353 108.63,-75.1648 150.7273,-125.7269 36.7787,-44.0445 66.5397,-93.9393 87.7521,-147.2557 30.7839,-77.237 44.002,-161.5133 37.6758,-244.4601 -4.7446,-63.2999 -20.6651,-125.7373 -46.7971,-183.5829 -25.8942,-57.4366 -61.6832,-110.4182 -105.4377,-155.7537 -40.2968,-41.7987 -87.263,-77.175598 -138.6981,-104.136598 -52.1806,-27.4183 -108.8185,-46.2792 -166.9821,-55.81730048 -30.2402,-4.96020002 -60.8955,-7.40230002 -91.5418,-7.26570002 z" /><g
         id="g8158"><path
           fill="#f7931a"
           fill-rule="nonzero"
           d="m 2204.4376,672.2452 c -72.2948,289.98597 -366.0034,466.4657 -656.0238,394.1524 -289.8987,-72.29472 -466.3784,-366.0219 -394.0519,-655.98407 72.263,-290.01772 365.9717,-466.51068 655.9021,-394.21593 289.9992,72.29475 466.4683,366.05368 394.1656,656.05289 l 0.01,-0.005 z"
           id="path8106"
           style="clip-rule:evenodd;stroke-width:0.264583;image-rendering:optimizeQuality;shape-rendering:geometricPrecision;text-rendering:geometricPrecision" /><path
           id="path8108"
           style="clip-rule:evenodd;fill:#ffffff;stroke-width:0.264583;image-rendering:optimizeQuality;shape-rendering:geometricPrecision;text-rendering:geometricPrecision"
           d="M 1772.6398,8.23376 V 1074.4803 c 46.2282,-8.1145 90.9063,-22.1959 133.0001,-41.6047 V 49.64312 c -30.1585,-13.84131 -62.0047,-25.12627 -95.3761,-33.44551 -12.5405,-3.12702 -25.0875,-5.75679 -37.624,-7.96385 z m 230.9802,99.6456 v 866.67836 c 52.123,-38.96299 97.4212,-87.41038 133.0001,-143.59899 V 251.90622 C 2101.6701,196.65716 2056.7425,147.6651 2003.62,107.87936 Z" /><path
           fill="#ffffff"
           fill-rule="nonzero"
           d="m 1686.9772,414.0832 c -6.8464,-72.51419 -69.3854,-96.92726 -148.3883,-103.98656 l 0.1751,-100.56529 -61.2152,-0.0978 -0.1609,97.9163 c -16.0941,-0.0293 -32.5425,0.2608 -48.8881,0.55818 l 0.182,-98.5663 -61.1791,-0.10699 -0.1955,100.53763 c -13.2505,0.24827 -26.2695,0.47464 -38.9585,0.45859 l -0.01,-0.31454 -84.4274,-0.17828 -0.098,65.37981 c 0,0 45.2052,-0.78063 44.4529,0.046 24.7911,0.0493 32.8388,14.46073 35.1692,26.88531 l -0.2,114.56673 c 1.7087,0.011 3.9404,0.0849 6.4706,0.4402 -2.042,-0.003 -4.218,-0.0164 -6.4678,6.1e-4 l -0.2961,160.49689 c -1.098,7.79996 -5.7062,20.2382 -23.031,20.2355 0.7851,0.69426 -44.4959,-0.0877 -44.4959,-0.0877 l -12.2932,73.08596 79.6635,0.13604 c 14.8252,0.0458 29.411,0.32336 43.734,0.43376 l -0.1505,101.71212 61.1485,0.11472 0.1656,-100.63785 c 16.7909,0.37739 33.0346,0.53878 48.9016,0.55335 l -0.2018,100.1712 61.2176,0.0978 0.1922,-101.53164 c 102.9267,-5.72451 175.0003,-31.52253 184.1099,-128.1553 7.3555,-77.80596 -29.1881,-112.59076 -87.5797,-126.72149 35.525,-18.01241 57.7705,-49.81466 52.6691,-102.87445 l -0.021,-0.008 z m -86.0222,217.33342 c -0.1,76.01043 -130.2318,67.13923 -171.7189,67.10605 l 0.2512,-134.76376 c 41.4974,0.0851 171.6115,-11.62337 171.4705,67.65707 z M 1572.8139,441.2346 c -0.1377,69.15103 -108.6638,60.89405 -143.2204,60.83563 l 0.2133,-122.22035 c 34.5566,0.0584 143.1238,-10.73879 143.0074,61.38344 z"
           id="path8110"
           style="clip-rule:evenodd;fill:#ffffff;stroke-width:0.264583;image-rendering:optimizeQuality;shape-rendering:geometricPrecision;text-rendering:geometricPrecision" /></g></g><g
       id="g8186"><path
         id="path8139"
         style="clip-rule:evenodd;fill:#000000;fill-opacity:1;stroke-width:0.264583;image-rendering:optimizeQuality;shape-rendering:geometricPrecision;text-rendering:geometricPrecision"
         d="m 1675.9551,1131.6172 c -77.4441,0.4349 -154.7311,17.6459 -225.0437,50.085 -66.7407,30.6961 -127.2661,74.8684 -176.6811,129.2457 -34.4395,37.821 -63.5306,80.508 -86.0663,126.4293 -29.2137,59.5321 -47.5122,124.3813 -53.8429,190.3901 -3.6845,38.2512 -3.293,76.8955 1.1996,115.0602 5.9339,50.7339 19.0554,100.6168 38.792,147.7222 28.1701,67.2554 69.8382,128.8271 121.914,179.8799 39.3585,38.6348 84.5977,71.2778 133.7207,96.3475 68.4007,34.9313 144.1929,55.2373 220.8854,59.3336 42.5454,2.2845 85.3561,-0.4718 127.2525,-8.2028 59.9991,-11.034 118.1243,-32.1656 171.1714,-62.2918 57.2178,-32.4353 108.63,-75.1648 150.7273,-125.7269 36.7787,-44.0445 66.5397,-93.9393 87.7521,-147.2557 30.7839,-77.237 44.002,-161.5133 37.6758,-244.4601 -4.7446,-63.2999 -20.6651,-125.7373 -46.7971,-183.5829 -25.8942,-57.4366 -61.6832,-110.4182 -105.4377,-155.7537 -40.2968,-41.7987 -87.263,-77.1756 -138.6981,-104.1366 -52.1806,-27.4183 -108.8185,-46.2792 -166.9821,-55.8173 -30.2402,-4.9602 -60.8955,-7.4023 -91.5418,-7.2657 z" /><g
         id="g8153"><path
           fill="#f7931a"
           fill-rule="nonzero"
           d="m 2204.4376,1810.2021 c -72.2948,289.986 -366.0034,466.4657 -656.0238,394.1525 -289.8987,-72.2948 -466.3784,-366.022 -394.0519,-655.9841 72.263,-290.0177 365.9717,-466.5107 655.9021,-394.216 289.9992,72.2948 466.4683,366.0537 394.1656,656.0529 l 0.01,-0.01 z"
           id="path8125"
           style="clip-rule:evenodd;fill:#ffffff;fill-opacity:1;stroke-width:0.264583;image-rendering:optimizeQuality;shape-rendering:geometricPrecision;text-rendering:geometricPrecision" /><path
           id="path8127"
           style="clip-rule:evenodd;fill:#f7931a;fill-opacity:1;stroke-width:0.264583;image-rendering:optimizeQuality;shape-rendering:geometricPrecision;text-rendering:geometricPrecision"
           d="m 1772.6398,1146.1907 v 1066.2465 c 46.2282,-8.1145 90.9063,-22.1958 133.0001,-41.6046 v -983.2325 c -30.1585,-13.8413 -62.0047,-25.1263 -95.3761,-33.4455 -12.5405,-3.1271 -25.0875,-5.7568 -37.624,-7.9639 z m 230.9802,99.6456 v 866.6784 c 52.123,-38.963 97.4212,-87.4104 133.0001,-143.599 v -579.0525 c -34.95,-55.2491 -79.8776,-104.2412 -133.0001,-144.0269 z" /><path
           fill="#ffffff"
           fill-rule="nonzero"
           d="m 1686.9772,1552.0401 c -6.8464,-72.5142 -69.3854,-96.9272 -148.3883,-103.9865 l 0.1751,-100.5653 -61.2152,-0.098 -0.1609,97.9163 c -16.0941,-0.029 -32.5425,0.2608 -48.8881,0.5582 l 0.182,-98.5663 -61.1791,-0.107 -0.1955,100.5376 c -13.2505,0.2483 -26.2695,0.4747 -38.9585,0.4586 l -0.01,-0.3145 -84.4274,-0.1783 -0.098,65.3798 c 0,0 45.2052,-0.7806 44.4529,0.046 24.7911,0.049 32.8388,14.4607 35.1692,26.8853 l -0.2,114.5668 c 1.7087,0.011 3.9404,0.085 6.4706,0.4402 -2.042,0 -4.218,-0.016 -6.4678,6e-4 l -0.2961,160.4969 c -1.098,7.7999 -5.7062,20.2382 -23.031,20.2355 0.7851,0.6942 -44.4959,-0.088 -44.4959,-0.088 l -12.2932,73.0859 79.6635,0.1361 c 14.8252,0.046 29.411,0.3233 43.734,0.4337 l -0.1505,101.7121 61.1485,0.1148 0.1656,-100.6379 c 16.7909,0.3774 33.0346,0.5388 48.9016,0.5534 l -0.2018,100.1712 61.2176,0.098 0.1922,-101.5317 c 102.9267,-5.7245 175.0003,-31.5225 184.1099,-128.1553 7.3555,-77.8059 -29.1881,-112.5907 -87.5797,-126.7215 35.525,-18.0124 57.7705,-49.8146 52.6691,-102.8744 l -0.021,-0.01 z m -86.0222,217.3335 c -0.1,76.0104 -130.2318,67.1392 -171.7189,67.106 l 0.2512,-134.7637 c 41.4974,0.085 171.6115,-11.6234 171.4705,67.657 z m -28.1411,-190.1821 c -0.1377,69.1511 -108.6638,60.8941 -143.2204,60.8357 l 0.2133,-122.2204 c 34.5566,0.058 143.1238,-10.7388 143.0074,61.3835 z"
           id="path8129"
           style="clip-rule:evenodd;fill:#f7931a;fill-opacity:1;stroke-width:0.264583;image-rendering:optimizeQuality;shape-rendering:geometricPrecision;text-rendering:geometricPrecision" /></g></g></g><g
     inkscape:groupmode="layer"
     id="g407"
     inkscape:label="draft rotiert2"
     style="display:inline"
     transform="translate(-0.0083352,-0.02633125)"><g
       id="g373"
       transform="rotate(14,541.24057,541.30167)"><path
         fill="#f7931a"
         fill-rule="nonzero"
         d="M 1066.2869,672.24519 C 993.9921,962.23116 700.2835,1138.7109 410.2631,1066.3976 120.36442,994.10287 -56.11531,700.37569 16.21119,410.41352 88.47419,120.3958 382.1829,-56.09716 672.1133,16.19759 c 289.9992,72.29475 466.4683,366.05368 394.1656,656.05289 l 0.01,-0.005 z"
         id="path367"
         style="clip-rule:evenodd;stroke-width:0.264583;image-rendering:optimizeQuality;shape-rendering:geometricPrecision;text-rendering:geometricPrecision" /><path
         id="path369"
         style="clip-rule:evenodd;stroke-width:0.264583;image-rendering:optimizeQuality;shape-rendering:geometricPrecision;text-rendering:geometricPrecision"
         d="M 634.4891,8.23375 V 1074.4803 c 46.2282,-8.1145 90.9063,-22.1959 133.0001,-41.6047 V 49.64311 C 737.3307,35.8018 705.4845,24.51684 672.1131,16.1976 659.5726,13.07058 647.0256,10.44081 634.4891,8.23375 Z m 230.9802,99.6456 v 866.67836 c 52.123,-38.96299 97.4212,-87.41038 133.0001,-143.59899 V 251.90621 C 963.5194,196.65715 918.5918,147.66509 865.4693,107.87935 Z" /><path
         fill="#ffffff"
         fill-rule="nonzero"
         d="M 548.8265,414.08319 C 541.9801,341.569 479.4411,317.15593 400.4382,310.09663 l 0.1751,-100.56529 -61.2152,-0.0978 -0.1609,97.9163 c -16.0941,-0.0293 -32.5425,0.26079 -48.8881,0.55818 l 0.182,-98.5663 -61.1791,-0.10699 -0.1955,100.53763 c -13.2505,0.24827 -26.2695,0.47464 -38.9585,0.45859 l -0.01,-0.31454 -84.42737,-0.17828 -0.098,65.37981 c 0,0 45.2052,-0.78063 44.4529,0.046 24.7911,0.0493 32.83877,14.46073 35.16917,26.88531 l -0.2,114.56673 c 1.7087,0.011 3.9404,0.0849 6.4706,0.4402 -2.042,-0.003 -4.218,-0.0164 -6.4678,6.1e-4 l -0.2961,160.49689 c -1.098,7.79996 -5.7062,20.2382 -23.03097,20.2355 0.7851,0.69426 -44.4959,-0.0877 -44.4959,-0.0877 l -12.2932,73.08596 79.66347,0.13604 c 14.8252,0.0458 29.411,0.32336 43.734,0.43376 l -0.1505,101.71212 61.1485,0.11472 0.1656,-100.63785 c 16.7909,0.37739 33.0346,0.53878 48.9016,0.55335 l -0.2018,100.1712 61.2176,0.0978 0.1922,-101.53164 c 102.9267,-5.72451 175.0003,-31.52253 184.1099,-128.1553 7.3555,-77.80596 -29.1881,-112.59076 -87.5797,-126.72149 35.525,-18.01241 57.7705,-49.81466 52.6691,-102.87445 l -0.021,-0.008 z m -86.0222,217.33342 c -0.1,76.01043 -130.2318,67.13923 -171.7189,67.10605 l 0.2512,-134.76376 c 41.4974,0.0851 171.6115,-11.62337 171.4705,67.65707 z M 434.6632,441.23458 c -0.1377,69.15104 -108.6638,60.89406 -143.2204,60.83564 l 0.2133,-122.22035 c 34.5566,0.0584 143.1238,-10.73879 143.0074,61.38344 z"
         id="path371"
         style="clip-rule:evenodd;fill:#000000;stroke-width:0.264583;image-rendering:optimizeQuality;shape-rendering:geometricPrecision;text-rendering:geometricPrecision" /></g></g><g
     inkscape:label="draft rotiert"
     inkscape:groupmode="layer"
     id="layer1"
     transform="translate(-823.56774,388.66428)"
     style="display:none"><path
       id="path7757"
       style="clip-rule:evenodd;fill:#000000;stroke-width:0.264583;image-rendering:optimizeQuality;shape-rendering:geometricPrecision;text-rendering:geometricPrecision"
       d="m 2487.9189,727.09558 c -85.8029,0.60518 -171.3982,21.58349 -247.6954,60.82999 -68.8807,35.28397 -130.3199,85.11421 -178.775,145.49082 -35.5061,44.10436 -64.1274,93.73791 -84.4878,146.57051 -31.4924,81.5335 -43.6232,170.578 -34.3739,257.5371 8.4728,80.3333 34.9053,158.7043 76.7701,227.7786 37.1184,61.3833 86.2114,115.5555 143.9307,158.1846 44.1713,32.7345 93.292,58.7753 145.1784,76.9512 75.237,26.4097 156.2107,36.5819 235.6218,28.9749 82.1984,-7.7913 162.5412,-34.3828 233.1673,-77.131 58.2267,-35.1563 109.9977,-81.0579 151.5497,-134.9305 34.9175,-45.075 62.7148,-95.6441 82.1101,-149.2583 28.9489,-79.9328 39.477,-166.5886 29.7434,-251.0898 -8.7115,-76.3473 -33.5761,-150.8048 -72.5615,-217.02315 -34.1831,-58.25224 -79.0702,-110.25723 -131.9102,-152.3546 -45.7885,-36.54249 -97.445,-65.72633 -152.4118,-85.99378 -62.5187,-23.09366 -129.1981,-34.90169 -195.8559,-34.53659 z" /><path
       fill="#f7931a"
       fill-rule="nonzero"
       d="m 3016.9244,1410.4235 c -72.2948,289.986 -366.0034,466.4657 -656.0238,394.1525 -289.8986,-72.2948 -466.3784,-366.022 -394.0519,-655.9841 72.263,-290.01826 365.9717,-466.51122 655.9021,-394.21647 289.9992,72.29475 466.4683,366.05417 394.1656,656.05337 l 0.01,-0.01 z"
       id="path7686"
       style="clip-rule:evenodd;fill:#ffffff;stroke-width:0.264583;image-rendering:optimizeQuality;shape-rendering:geometricPrecision;text-rendering:geometricPrecision" /><path
       id="path7688"
       style="clip-rule:evenodd;fill:#f7931a;fill-opacity:1;stroke-width:0.264583;image-rendering:optimizeQuality;shape-rendering:geometricPrecision;text-rendering:geometricPrecision"
       d="M 2585.1266,746.41159 V 1812.6586 c 46.2282,-8.1144 90.9063,-22.1958 133.0001,-41.6046 V 787.82095 c -30.1585,-13.84131 -62.0047,-25.12627 -95.3761,-33.44551 -12.5405,-3.12702 -25.0875,-5.75679 -37.624,-7.96385 z m 230.9802,99.6456 v 866.67891 c 52.123,-38.963 97.4212,-87.4104 133.0001,-143.599 V 990.08445 c -34.95,-55.24947 -79.8776,-104.24152 -133.0001,-144.02726 z" /><path
       fill="#ffffff"
       fill-rule="nonzero"
       d="m 2543.6442,1212.3023 c 10.7739,-72.0354 -44.069,-110.7572 -119.0625,-136.5885 l 24.3285,-97.57855 -59.399,-14.80095 -23.6828,95.0096 c -15.6157,-3.8947 -31.6521,-7.5644 -47.5906,-11.2024 l 23.8548,-95.6368 -59.3619,-14.80082 -24.3417,97.54712 c -12.9222,-2.9422 -25.6143,-5.85 -37.928,-8.9139 l 0.069,-0.3069 -81.9124,-20.4549 -15.8008,63.4418 c 0,0 44.0689,10.1018 43.1402,10.7235 24.0533,6.0034 28.4031,21.9261 27.6807,34.5467 l -27.7126,111.1647 c 1.6563,0.4207 3.8047,1.0292 6.1754,1.9817 -1.9818,-0.4921 -4.0905,-1.0292 -6.2786,-1.5531 l -38.8434,155.7258 c -2.9396,7.3078 -10.4008,18.2748 -27.2177,14.1102 0.5953,0.8626 -43.1721,-10.7738 -43.1721,-10.7738 l -29.4904,67.9926 77.298,19.2696 c 14.3801,3.6063 28.4717,7.3793 42.3491,10.9273 l -24.5797,98.6976 59.3301,14.8008 24.3417,-97.6498 c 16.2084,4.4 31.9378,8.4587 47.3366,12.2846 l -24.2597,97.1894 59.4016,14.8008 24.5772,-98.5123 c 101.2878,19.169 177.4481,11.4405 209.505,-80.1741 25.8313,-73.7605 -1.2859,-116.3055 -54.573,-144.0497 38.8118,-8.9509 68.0456,-34.4779 75.8402,-87.2094 l -0.018,-0.013 z m -135.7127,190.3042 c -18.3568,73.7606 -142.5469,33.8878 -182.8112,23.8892 l 32.6178,-130.757 c 40.2617,10.0515 169.3783,29.9429 150.1961,106.8678 z m 18.37,-191.3731 c -16.7454,67.093 -120.1102,33.0068 -153.6409,24.6486 l 29.5725,-118.5889 c 33.5307,8.3582 141.5124,23.958 124.0737,93.9403 z"
       id="path7690"
       style="clip-rule:evenodd;fill:#f7931a;fill-opacity:1;stroke-width:0.264583;image-rendering:optimizeQuality;shape-rendering:geometricPrecision;text-rendering:geometricPrecision" /><path
       fill="#f7931a"
       fill-rule="nonzero"
       d="M 1889.8463,294.64484 C 1817.5515,584.63081 1523.8429,761.11054 1233.8225,688.79727 943.92382,616.50252 767.44409,322.77534 839.77059,32.813174 c 72.263,-290.017724 365.97171,-466.510684 655.90211,-394.215934 289.9992,72.29475 466.4683,366.0536844 394.1656,656.05289 l 0.01,-0.005 z"
       id="path6698"
       style="clip-rule:evenodd;stroke-width:0.264583;image-rendering:optimizeQuality;shape-rendering:geometricPrecision;text-rendering:geometricPrecision" /><path
       id="path7608"
       style="clip-rule:evenodd;stroke-width:0.264583;image-rendering:optimizeQuality;shape-rendering:geometricPrecision;text-rendering:geometricPrecision"
       d="M 1458.0485,-369.3666 V 696.87994 c 46.2282,-8.11449 90.9063,-22.19587 133.0001,-41.60469 v -983.23249 c -30.1585,-13.84131 -62.0047,-25.12627 -95.3761,-33.44551 -12.5405,-3.12702 -25.0875,-5.75679 -37.624,-7.96385 z m 230.9802,99.6456 v 866.67836 c 52.123,-38.96299 97.4212,-87.41038 133.0001,-143.59899 v -579.05251 c -34.95,-55.24906 -79.8776,-104.24112 -133.0001,-144.02686 z" /><path
       fill="#ffffff"
       fill-rule="nonzero"
       d="m 1416.5661,96.523596 c 10.7739,-72.03545 -44.069,-110.75723 -119.0625,-136.5885 l 24.3285,-97.578326 -59.399,-14.80079 -23.6828,95.009226 c -15.6157,-3.89467 -31.6521,-7.56444 -47.5906,-11.20246 l 23.8548,-95.636286 -59.3619,-14.80079 -24.3417,97.546576 c -12.9222,-2.94217 -25.6143,-5.84994 -37.928,-8.91381 l 0.069,-0.30692 -81.9124,-20.454936 -15.80087,63.441796 c 0,0 44.06897,10.10179 43.14027,10.72356 24.0533,6.00339 28.4031,21.92602 27.6807,34.5466403 L 1038.847,108.67327 c 1.6563,0.42069 3.8047,1.02923 6.1754,1.98173 -1.9818,-0.49213 -4.0905,-1.02923 -6.2786,-1.55311 L 999.90032,264.8277 c -2.93952,7.3078 -10.40077,18.27478 -27.21768,14.11023 0.59531,0.86255 -43.17206,-10.77383 -43.17206,-10.77383 l -29.49046,67.99258 77.29802,19.2696 c 14.3801,3.6063 28.47176,7.3793 42.34916,10.9273 l -24.57975,98.6976 59.33015,14.8008 24.3417,-97.6498 c 16.2084,4.4 31.9378,8.4587 47.3366,12.2846 l -24.2597,97.1894 59.4016,14.8008 24.5772,-98.5123 c 101.2878,19.169 177.4481,11.4405 209.505,-80.1741 25.8313,-73.76052 -1.2859,-116.30552 -54.573,-144.04973 38.8118,-8.95085 68.0456,-34.47785 75.8402,-87.209314 l -0.018,-0.0132 z M 1280.8534,286.82781 c -18.3568,73.76057 -142.5469,33.88783 -182.8112,23.88923 L 1130.66,179.95996 c 40.2617,10.05152 169.3783,29.94289 150.1961,106.86785 z m 18.37,-191.373124 C 1282.478,162.54773 1179.1132,128.46146 1145.5825,120.10327 L 1175.155,1.5143663 c 33.5307,8.35819 141.5124,23.9580297 124.0737,93.9403197 z"
       id="path7616"
       style="clip-rule:evenodd;fill:#000000;stroke-width:0.264583;image-rendering:optimizeQuality;shape-rendering:geometricPrecision;text-rendering:geometricPrecision" /><path
       fill="#f7931a"
       fill-rule="nonzero"
       d="m 1889.8463,1410.4212 c -72.2948,289.986 -366.0034,466.4657 -656.0238,394.1525 -289.89866,-72.2948 -466.37839,-366.022 -394.05189,-655.9841 72.263,-290.01617 365.97169,-466.50913 655.90209,-394.21438 289.9992,72.29475 466.4683,366.05208 394.1656,656.05128 l 0.01,-0.01 z"
       id="path7634"
       style="clip-rule:evenodd;fill:#000000;stroke-width:0.264583;image-rendering:optimizeQuality;shape-rendering:geometricPrecision;text-rendering:geometricPrecision" /><path
       id="path7636"
       style="clip-rule:evenodd;fill:#f7931a;fill-opacity:1;stroke-width:0.264583;image-rendering:optimizeQuality;shape-rendering:geometricPrecision;text-rendering:geometricPrecision"
       d="M 1458.0485,746.41138 V 1812.6563 c 46.2282,-8.1144 90.9063,-22.1958 133.0001,-41.6046 V 787.82074 c -30.1585,-13.84131 -62.0047,-25.12627 -95.3761,-33.44551 -12.5405,-3.12702 -25.0875,-5.75679 -37.624,-7.96385 z m 230.9802,99.6456 v 866.67682 c 52.123,-38.963 97.4212,-87.4104 133.0001,-143.599 V 990.08215 c -34.95,-55.24855 -79.8776,-104.23943 -133.0001,-144.02517 z" /><path
       fill="#ffffff"
       fill-rule="nonzero"
       d="m 1416.5661,1212.3 c 10.7739,-72.0354 -44.069,-110.7572 -119.0625,-136.5885 l 24.3285,-97.57855 -59.399,-14.80095 -23.6828,95.0096 c -15.6157,-3.8947 -31.6521,-7.5644 -47.5906,-11.2024 l 23.8548,-95.6368 -59.3619,-14.79999 -24.3417,97.54629 c -12.9222,-2.9422 -25.6143,-5.85 -37.928,-8.9139 l 0.069,-0.3069 -81.9124,-20.4549 -15.80082,63.4418 c 0,0 44.06892,10.1018 43.14022,10.7235 24.0533,6.0034 28.4031,21.9261 27.6807,34.5467 l -27.7126,111.1647 c 1.6563,0.4207 3.8047,1.0292 6.1754,1.9817 -1.9818,-0.4921 -4.0905,-1.0292 -6.2786,-1.5531 l -38.84342,155.7258 c -2.9396,7.3078 -10.40081,18.2748 -27.21772,14.1102 0.59531,0.8626 -43.17206,-10.7738 -43.17206,-10.7738 l -29.49046,67.9926 77.29802,19.2696 c 14.3801,3.6063 28.47174,7.3793 42.34914,10.9273 l -24.57972,98.6976 59.33012,14.8008 24.3417,-97.6498 c 16.2084,4.4 31.9378,8.4587 47.3366,12.2846 l -24.2597,97.1894 59.4016,14.8008 24.5772,-98.5123 c 101.2878,19.169 177.4481,11.4405 209.505,-80.1741 25.8313,-73.7605 -1.2859,-116.3055 -54.573,-144.0497 38.8118,-8.9509 68.0456,-34.4779 75.8402,-87.2094 l -0.018,-0.013 z m -135.7127,190.3042 c -18.3568,73.7606 -142.5469,33.8878 -182.8112,23.8892 l 32.6178,-130.757 c 40.2617,10.0515 169.3783,29.9429 150.1961,106.8678 z m 18.37,-191.3731 c -16.7454,67.093 -120.1102,33.0068 -153.6409,24.6486 l 29.5725,-118.5889 c 33.5307,8.3582 141.5124,23.958 124.0737,93.9403 z"
       id="path7638"
       style="clip-rule:evenodd;fill:#f7931a;fill-opacity:1;stroke-width:0.264583;image-rendering:optimizeQuality;shape-rendering:geometricPrecision;text-rendering:geometricPrecision" /><path
       id="path7780"
       style="clip-rule:evenodd;fill:#000000;stroke-width:0.264583;image-rendering:optimizeQuality;shape-rendering:geometricPrecision;text-rendering:geometricPrecision"
       d="m 2487.919,-388.68239 c -85.8029,0.60518 -171.3982,21.58349 -247.6954,60.82999 -68.8807,35.28397 -130.3199,85.11421 -178.775,145.49191 -35.5061,44.1051 -64.1274,93.738395 -84.4878,146.570995 -31.4924,81.5335 -43.6232,170.578005 -34.3739,257.537105 8.4728,80.3333 34.9053,158.7043 76.7701,227.7786 37.1184,61.3833 86.2114,115.5555 143.9307,158.1846 44.1713,32.7345 93.292,58.7753 145.1784,76.9512 75.237,26.4097 156.2107,36.5819 235.6218,28.9749 82.1984,-7.7913 162.5412,-34.3828 233.1673,-77.131 58.2267,-35.1563 109.9977,-81.0579 151.5497,-134.9305 34.9175,-45.075 62.7148,-95.6441 82.1101,-149.2583 28.9489,-79.9328 39.477,-166.5886 29.7434,-251.0898 -8.7115,-76.347305 -33.5761,-150.804805 -72.5615,-217.0231 -34.1831,-58.2523 -79.0702,-110.25886 -131.9102,-152.35623 -45.7885,-36.54249 -97.445,-65.72633 -152.4118,-85.99378 -62.5187,-23.09366 -129.1981,-34.90169 -195.8559,-34.53659 z" /><path
       fill="#f7931a"
       fill-rule="nonzero"
       d="m 3016.9245,294.64484 c -72.2948,289.98597 -366.0034,466.4657 -656.0238,394.15243 -289.8987,-72.29475 -466.3784,-366.02193 -394.0519,-655.984096 72.263,-290.017724 365.9717,-466.510684 655.9021,-394.215934 289.9992,72.29475 466.4683,366.0536844 394.1656,656.05289 l 0.01,-0.005 z"
       id="path7678"
       style="clip-rule:evenodd;stroke-width:0.264583;image-rendering:optimizeQuality;shape-rendering:geometricPrecision;text-rendering:geometricPrecision" /><path
       id="path7680"
       style="clip-rule:evenodd;fill:#ffffff;stroke-width:0.264583;image-rendering:optimizeQuality;shape-rendering:geometricPrecision;text-rendering:geometricPrecision"
       d="M 2585.1267,-369.3666 V 696.87994 c 46.2282,-8.11449 90.9063,-22.19587 133.0001,-41.60469 v -983.23249 c -30.1585,-13.84131 -62.0047,-25.12627 -95.3761,-33.44551 -12.5405,-3.12702 -25.0875,-5.75679 -37.624,-7.96385 z m 230.9802,99.6456 v 866.67836 c 52.123,-38.96299 97.4212,-87.41038 133.0001,-143.59899 v -579.05251 c -34.95,-55.24906 -79.8776,-104.24112 -133.0001,-144.02686 z" /><path
       fill="#ffffff"
       fill-rule="nonzero"
       d="m 2543.6443,96.523596 c 10.7739,-72.03545 -44.069,-110.75723 -119.0625,-136.5885 l 24.3285,-97.578326 -59.399,-14.80079 -23.6828,95.009226 c -15.6157,-3.89467 -31.6521,-7.56444 -47.5906,-11.20246 l 23.8548,-95.636286 -59.3619,-14.80079 -24.3417,97.546576 c -12.9222,-2.94217 -25.6143,-5.84994 -37.928,-8.91381 l 0.069,-0.30692 -81.9124,-20.454936 -15.8009,63.441796 c 0,0 44.069,10.10179 43.1403,10.72356 24.0533,6.00339 28.4031,21.92602 27.6807,34.5466403 L 2165.9252,108.67327 c 1.6563,0.42069 3.8047,1.02923 6.1754,1.98173 -1.9818,-0.49213 -4.0905,-1.02923 -6.2786,-1.55311 l -38.8435,155.72581 c -2.9395,7.3078 -10.4007,18.27478 -27.2177,14.11023 0.5954,0.86255 -43.172,-10.77383 -43.172,-10.77383 l -29.4905,67.99258 77.298,19.2696 c 14.3801,3.6063 28.4718,7.3793 42.3492,10.9273 l -24.5797,98.6976 59.3301,14.8008 24.3417,-97.6498 c 16.2084,4.4 31.9378,8.4587 47.3366,12.2846 l -24.2597,97.1894 59.4016,14.8008 24.5772,-98.5123 c 101.2878,19.169 177.4481,11.4405 209.505,-80.1741 25.8313,-73.76052 -1.2859,-116.30552 -54.573,-144.04973 38.8118,-8.95085 68.0456,-34.47785 75.8402,-87.209314 l -0.018,-0.0132 z M 2407.9316,286.82781 c -18.3568,73.76057 -142.5469,33.88783 -182.8112,23.88923 l 32.6178,-130.75708 c 40.2617,10.05152 169.3783,29.94289 150.1961,106.86785 z m 18.37,-191.373124 c -16.7454,67.093044 -120.1102,33.006774 -153.6409,24.648584 L 2302.2332,1.5143663 c 33.5307,8.35819 141.5124,23.9580297 124.0737,93.9403197 z"
       id="path7682"
       style="clip-rule:evenodd;fill:#ffffff;stroke-width:0.264583;image-rendering:optimizeQuality;shape-rendering:geometricPrecision;text-rendering:geometricPrecision" /></g><g
     inkscape:groupmode="layer"
     id="layer2"
     inkscape:label="mit Schriftzug"
     style="display:none"
     transform="translate(-0.0083352,-0.02633125)"><path
       id="path7920"
       style="clip-rule:evenodd;display:inline;fill:#000000;stroke-width:0.34895;image-rendering:optimizeQuality;shape-rendering:geometricPrecision;text-rendering:geometricPrecision"
       d="M 1022.7107,336.19215 C 909.5479,336.99031 796.65889,364.65796 696.03286,416.41896 605.18822,462.9539 524.15794,528.67348 460.252,608.30377 c -46.8279,58.16886 -84.57565,123.62867 -111.42835,193.30797 -41.53437,107.53203 -57.53331,224.97016 -45.33469,339.65786 11.17452,105.9492 46.03553,209.3102 101.24973,300.4102 48.95431,80.9565 113.70157,152.4025 189.82577,208.6247 58.25617,43.1726 123.03995,77.517 191.47133,101.4886 99.22776,34.831 206.02152,48.2468 310.75431,38.2142 108.409,-10.2758 214.3707,-45.3465 307.5173,-101.7257 76.7934,-46.3666 145.0726,-106.9049 199.8741,-177.9557 46.0517,-59.4481 82.7128,-126.1421 108.2926,-196.8522 38.1798,-105.421 52.065,-219.7086 39.2276,-331.15463 -11.4893,-100.69219 -44.2825,-198.8919 -95.6991,-286.22517 -45.083,-76.82717 -104.2833,-145.41702 -173.9723,-200.93795 -60.389,-48.19476 -128.5173,-86.68443 -201.0112,-113.41455 -82.454,-30.45751 -170.3955,-46.03077 -258.3084,-45.54925 z" /><path
       id="path7922"
       style="clip-rule:evenodd;display:inline;fill:#ffffff;stroke-width:0.34262;image-rendering:optimizeQuality;shape-rendering:geometricPrecision;text-rendering:geometricPrecision"
       d="M 1022.8054,349.40803 C 911.69547,350.19171 800.85435,377.35745 702.05374,428.17948 612.85709,473.87024 533.29675,538.39762 470.5501,616.58336 424.5717,673.697 387.50871,737.96932 361.14314,806.3846 c -40.7809,105.58132 -56.48961,220.889 -44.51229,333.4962 10.97182,104.0272 45.20042,205.5132 99.413,294.9606 48.06625,79.4878 111.63895,149.6378 186.3822,204.8401 57.19936,42.3894 120.80792,76.1108 187.99791,99.6475 97.4277,34.1991 202.28414,47.3716 305.11704,37.521 106.4424,-10.0894 210.4818,-44.5239 301.9387,-99.8803 75.4003,-45.5255 142.4409,-104.9656 196.2483,-174.7275 45.2162,-58.3696 81.2123,-123.8538 106.328,-193.2811 37.4872,-103.5086 51.1206,-215.723 38.516,-325.14732 -11.2808,-98.86558 -43.4791,-195.28388 -93.963,-281.03286 -44.2652,-75.43348 -102.3916,-142.77905 -170.8163,-197.2928 -59.2935,-47.32048 -126.1859,-85.11191 -197.3647,-111.35713 -80.9583,-29.905 -167.3045,-45.19575 -253.6226,-44.72296 z" /><path
       id="path7780-2"
       style="clip-rule:evenodd;display:inline;fill:#000000;stroke-width:0.264583;image-rendering:optimizeQuality;shape-rendering:geometricPrecision;text-rendering:geometricPrecision"
       d="m 1023.9732,512.33035 c -85.80292,0.60518 -171.39822,21.58349 -247.69542,60.82999 -68.8807,35.28397 -130.3199,85.11421 -178.775,145.49191 -35.5061,44.1051 -64.1274,93.73839 -84.4878,146.57099 -31.4924,81.5335 -43.6232,170.57806 -34.3739,257.53716 8.4728,80.3333 34.9053,158.7043 76.7701,227.7786 37.1184,61.3833 86.2114,115.5555 143.9307,158.1846 44.1713,32.7345 93.292,58.7753 145.1784,76.9512 75.237,26.4097 156.21072,36.5819 235.62182,28.9749 82.1984,-7.7913 162.5412,-34.3828 233.1673,-77.131 58.2267,-35.1563 109.9977,-81.0579 151.5497,-134.9305 34.9175,-45.075 62.7148,-95.6441 82.1101,-149.2583 28.9489,-79.9328 39.477,-166.5886 29.7434,-251.0898 -8.7115,-76.34736 -33.5761,-150.80486 -72.5615,-217.02315 -34.1831,-58.2523 -79.0702,-110.25886 -131.9102,-152.35623 -45.7885,-36.54249 -97.445,-65.72633 -152.4118,-85.99378 -62.5187,-23.09366 -129.1981,-34.90169 -195.8559,-34.53659 z" /><path
       fill="#f7931a"
       fill-rule="nonzero"
       d="m 1552.9787,1195.6576 c -72.2948,289.986 -366.0034,466.4657 -656.02382,394.1524 -289.8987,-72.2947 -466.3784,-366.0219 -394.0519,-655.98409 72.263,-290.01772 365.9717,-466.51068 655.90212,-394.21593 289.9992,72.29475 466.4683,366.05368 394.1656,656.05292 l 0.01,-0.01 z"
       id="path7678-7"
       style="clip-rule:evenodd;display:inline;stroke-width:0.264583;image-rendering:optimizeQuality;shape-rendering:geometricPrecision;text-rendering:geometricPrecision" /><path
       id="path7680-0"
       style="clip-rule:evenodd;display:inline;fill:#ffffff;stroke-width:0.264583;image-rendering:optimizeQuality;shape-rendering:geometricPrecision;text-rendering:geometricPrecision"
       d="M 1121.1809,531.64614 V 1597.8927 c 46.2282,-8.1145 90.9063,-22.1959 133.0001,-41.6047 V 573.0555 c -30.1585,-13.84131 -62.0047,-25.12627 -95.3761,-33.44551 -12.5405,-3.12702 -25.0875,-5.75679 -37.624,-7.96385 z m 230.9802,99.6456 v 866.67836 c 52.123,-38.963 97.4212,-87.4104 133.0001,-143.599 V 775.3186 c -34.95,-55.24906 -79.8776,-104.24112 -133.0001,-144.02686 z" /><path
       fill="#ffffff"
       fill-rule="nonzero"
       d="m 1079.6985,997.53634 c 10.7739,-72.03545 -44.069,-110.75723 -119.06252,-136.5885 l 24.3285,-97.57833 -59.399,-14.80079 -23.6828,95.00923 c -15.6157,-3.89467 -31.6521,-7.56444 -47.5906,-11.20246 l 23.8548,-95.63629 -59.3619,-14.80079 -24.3417,97.54658 c -12.9222,-2.94217 -25.6143,-5.84994 -37.928,-8.91381 l 0.069,-0.30692 -81.9124,-20.45494 -15.8009,63.4418 c 0,0 44.069,10.10179 43.1403,10.72356 24.0533,6.00339 28.4031,21.92602 27.6807,34.54664 l -27.7126,111.16468 c 1.6563,0.4207 3.8047,1.0292 6.1754,1.9817 -1.9818,-0.4921 -4.0905,-1.0292 -6.2786,-1.5531 l -38.8435,155.7258 c -2.9395,7.3078 -10.4007,18.2748 -27.2177,14.1103 0.5954,0.8625 -43.172,-10.7739 -43.172,-10.7739 l -29.4905,67.9926 77.298,19.2696 c 14.3801,3.6063 28.4718,7.3793 42.3492,10.9273 l -24.5797,98.6976 59.3301,14.8008 24.3417,-97.6498 c 16.2084,4.4 31.9378,8.4587 47.3366,12.2846 l -24.2597,97.1894 59.4016,14.8008 24.5772,-98.5123 c 101.2878,19.169 177.44812,11.4405 209.50502,-80.1741 25.8313,-73.7605 -1.2859,-116.3055 -54.573,-144.0497 38.8118,-8.9509 68.0456,-34.4779 75.8402,-87.20932 l -0.018,-0.0132 z M 943.98578,1187.8406 c -18.3568,73.7605 -142.5469,33.8878 -182.8112,23.8892 l 32.6178,-130.7571 c 40.2617,10.0515 169.3783,29.9429 150.1961,106.8679 z m 18.37,-191.37317 c -16.7454,67.09307 -120.1102,33.00677 -153.6409,24.64857 l 29.5725,-118.58889 c 33.5307,8.35819 141.5124,23.95803 124.0737,93.94032 z"
       id="path7682-9"
       style="clip-rule:evenodd;display:inline;fill:#ffffff;stroke-width:0.264583;image-rendering:optimizeQuality;shape-rendering:geometricPrecision;text-rendering:geometricPrecision" /><text
       xml:space="preserve"
       transform="scale(0.26458333)"
       id="text7976"
       style="font-style:normal;font-weight:normal;font-size:40px;line-height:1.25;font-family:sans-serif;white-space:pre;shape-inside:url(#rect7978);fill:#000000;fill-opacity:1;stroke:none" /><text
       xml:space="preserve"
       style="font-style:normal;font-weight:normal;font-size:50.8px;line-height:1.25;font-family:sans-serif;fill:#000000;fill-opacity:1;stroke:none;stroke-width:0.264583"
       x="277.33258"
       y="438.0527"
       id="text7984"><tspan
         sodipodi:role="line"
         id="tspan7982"
         style="font-style:normal;font-variant:normal;font-weight:bold;font-stretch:normal;font-size:50.8px;font-family:Helvetica;-inkscape-font-specification:'Helvetica Bold';stroke-width:0.264583"
         x="277.33258"
         y="438.0527">Bitcoin-Stammtisch</tspan></text><text
       xml:space="preserve"
       style="font-style:normal;font-weight:normal;font-size:50.8px;line-height:1.25;font-family:sans-serif;fill:#000000;fill-opacity:1;stroke:none;stroke-width:0.264583"
       x="277.33258"
       y="485.67844"
       id="text8038"><tspan
         sodipodi:role="line"
         id="tspan8036"
         style="font-style:normal;font-variant:normal;font-weight:bold;font-stretch:normal;font-size:50.8px;font-family:Helvetica;-inkscape-font-specification:'Helvetica Bold';stroke-width:0.264583"
         x="277.33258"
         y="485.67844">Dresden</tspan></text><text
       xml:space="preserve"
       style="font-style:normal;font-weight:normal;font-size:50.8px;line-height:1.25;font-family:sans-serif;fill:#000000;fill-opacity:1;stroke:none;stroke-width:0.264583"
       x="277.33258"
       y="392.01456"
       id="text8042"><tspan
         sodipodi:role="line"
         id="tspan8040"
         style="font-style:normal;font-variant:normal;font-weight:bold;font-stretch:normal;font-size:50.8px;font-family:Helvetica;-inkscape-font-specification:'Helvetica Bold';stroke-width:0.264583"
         x="277.33258"
         y="392.01456">Bitcoin-Dresden</tspan></text></g></svg>
